<svg width="45" height="45" viewBox="0 0 45 45" fill="none" xmlns="http://www.w3.org/2000/svg">
<path d="M0 22.5V45H45V0H0V22.5Z" fill="#007ACC"/>
<path d="M9.95113 22.6494L9.93689 24.4921H15.7939V41.1351H19.9371V24.4921H25.7941V22.6851C25.7941 21.6849 25.7727 20.8493 25.7442 20.8278C25.7227 20.7993 22.1584 20.7849 17.837 20.7921L9.97275 20.8136L9.9513 22.6493L9.95113 22.6494Z" fill="white"/>
<path d="M36.3106 20.7612C37.4534 21.047 38.3249 21.554 39.1249 22.3826C39.5392 22.8256 40.1534 23.6327 40.2035 23.8256C40.2175 23.8827 38.2605 25.197 37.0749 25.9327C37.032 25.9613 36.8605 25.7755 36.6676 25.4897C36.0891 24.647 35.482 24.2826 34.5533 24.2184C33.1893 24.1255 32.3105 24.8398 32.3177 26.0325C32.3177 26.3827 32.3677 26.5897 32.5106 26.8756C32.8106 27.4969 33.3677 27.8684 35.1178 28.6255C38.3391 30.0113 39.7176 30.9256 40.5749 32.2255C41.532 33.6757 41.7463 35.9898 41.0963 37.7112C40.3821 39.5826 38.6107 40.8542 36.1176 41.2756C35.3463 41.4113 33.5178 41.3898 32.6892 41.2399C30.8821 40.9184 29.1677 40.0256 28.1106 38.8542C27.6963 38.397 26.8891 37.2041 26.9392 37.1183C26.9606 37.0899 27.1462 36.9756 27.3533 36.8541C27.5534 36.7399 28.3106 36.3039 29.0248 35.8898L30.3177 35.1397L30.5891 35.5398C30.9677 36.1183 31.7962 36.9113 32.2963 37.1755C33.7319 37.9327 35.7035 37.8255 36.6748 36.954C37.0891 36.5755 37.2605 36.1826 37.2605 35.604C37.2605 35.0826 37.1962 34.8541 36.9248 34.4614C36.575 33.9613 35.8606 33.5398 33.8319 32.6614C31.5105 31.6612 30.5105 31.0398 29.5963 30.054C29.0677 29.4827 28.5676 28.5683 28.3605 27.804C28.1892 27.1684 28.1461 25.5755 28.282 24.9326C28.7606 22.6897 30.4534 21.1256 32.8962 20.6612C33.689 20.5112 35.5319 20.5683 36.3106 20.7614V20.7612Z" fill="white"/>
</svg>
