<svg width="45" height="45" viewBox="0 0 45 45" fill="none" xmlns="http://www.w3.org/2000/svg">
<path d="M0 0H45V45H0V0Z" fill="#F7DF1E"/>
<path d="M11.8322 37.6053L15.2758 35.5212C15.9402 36.6991 16.5446 37.6958 17.9942 37.6958C19.3838 37.6958 20.26 37.1523 20.26 35.038V20.6594H24.4888V35.0977C24.4888 39.4777 21.9213 41.4714 18.1755 41.4714C14.7925 41.4714 12.8289 39.7194 11.832 37.6049" fill="black"/>
<path d="M26.7857 37.1521L30.2289 35.1586C31.1354 36.6388 32.3135 37.7262 34.3976 37.7262C36.1499 37.7262 37.2672 36.8501 37.2672 35.6418C37.2672 34.1919 36.1193 33.6783 34.1861 32.8328L33.1291 32.3793C30.0781 31.0808 28.0543 29.4495 28.0543 26.006C28.0543 22.8342 30.4708 20.4175 34.2467 20.4175C36.9351 20.4175 38.8684 21.3541 40.2577 23.8008L36.965 25.9155C36.2399 24.6166 35.4549 24.1031 34.2466 24.1031C33.008 24.1031 32.2226 24.8885 32.2226 25.9155C32.2226 27.1841 33.008 27.6979 34.8203 28.4833L35.8775 28.9363C39.4722 30.477 41.496 32.0476 41.496 35.5815C41.496 39.3879 38.5056 41.4719 34.4881 41.4719C30.5613 41.4719 28.0239 39.5991 26.7855 37.1523" fill="black"/>
</svg>
