<svg width="74" height="45" viewBox="0 0 74 45" fill="none" xmlns="http://www.w3.org/2000/svg">
<path d="M36.2758 44.8701C36.0275 44.8701 35.7956 44.8039 35.5802 44.688L33.3774 43.3795C33.046 43.1972 33.2117 43.131 33.3112 43.0979C33.7583 42.9489 33.8411 42.9156 34.3049 42.6508C34.3546 42.6175 34.421 42.6341 34.4705 42.6673L36.1601 43.6776C36.2263 43.7107 36.3091 43.7107 36.3587 43.6776L42.9675 39.8515C43.0337 39.8184 43.067 39.752 43.067 39.6693V32.0336C43.067 31.9507 43.0337 31.8846 42.9675 31.8513L36.3587 28.0418C36.2925 28.0086 36.2096 28.0086 36.1601 28.0418L29.5512 31.8513C29.485 31.8845 29.4518 31.9673 29.4518 32.0335V39.6692C29.4518 39.7355 29.485 39.8182 29.5512 39.8515L31.3567 40.8949C32.3339 41.3918 32.9467 40.8121 32.9467 40.2324V32.696C32.9467 32.5967 33.0295 32.4973 33.1455 32.4973H33.9902C34.0896 32.4973 34.1889 32.5801 34.1889 32.696V40.2324C34.1889 41.5408 33.4767 42.3028 32.2344 42.3028C31.8535 42.3028 31.5554 42.3028 30.7106 41.8886L28.9715 40.8949C28.5409 40.6466 28.2759 40.1827 28.2759 39.6858V32.0501C28.2759 31.5533 28.5409 31.0894 28.9715 30.841L35.5802 27.0149C35.9944 26.783 36.5576 26.783 36.9716 27.0149L43.5803 30.841C44.011 31.0894 44.2761 31.5533 44.2761 32.0501V39.6858C44.2761 40.1827 44.011 40.6466 43.5803 40.8949L36.9716 44.7211C36.7562 44.8205 36.5079 44.8701 36.276 44.8701H36.2758ZM38.3132 39.6196C35.4147 39.6196 34.8184 38.2945 34.8184 37.1682C34.8184 37.0688 34.9012 36.9695 35.0171 36.9695H35.8784C35.9778 36.9695 36.0606 37.0357 36.0606 37.1351C36.1932 38.0129 36.5741 38.4436 38.3298 38.4436C39.7211 38.4436 40.3175 38.1288 40.3175 37.3835C40.3175 36.9528 40.1517 36.6383 37.982 36.4229C36.1765 36.2406 35.0502 35.8432 35.0502 34.4022C35.0502 33.0605 36.1767 32.2654 38.0648 32.2654C40.1848 32.2654 41.2284 32.9943 41.361 34.5842C41.361 34.634 41.3444 34.6836 41.3113 34.7334C41.278 34.7665 41.2284 34.7996 41.1787 34.7996H40.3174C40.2346 34.7996 40.1517 34.7334 40.1352 34.6505C39.9365 33.7396 39.423 33.4414 38.0648 33.4414C36.541 33.4414 36.3587 33.9715 36.3587 34.3689C36.3587 34.8493 36.5741 34.9983 38.6279 35.2633C40.6652 35.5285 41.626 35.9094 41.626 37.3338C41.6093 38.7914 40.4168 39.6196 38.3132 39.6196Z" fill="#539E43"/>
<path d="M15.7705 15.0065C15.7705 14.7084 15.6048 14.4266 15.3398 14.2776L8.31694 10.2362C8.20085 10.1698 8.06843 10.1367 7.93601 10.1201H7.86966C7.73724 10.1201 7.60468 10.1698 7.48874 10.2362L0.46587 14.2776C0.200743 14.4266 0.0352173 14.7083 0.0352173 15.0065L0.0518415 25.872C0.0518415 26.021 0.134676 26.1701 0.267096 26.2364C0.39966 26.3193 0.565185 26.3193 0.681268 26.2364L4.85523 23.8513C5.12022 23.7022 5.28589 23.4206 5.28589 23.1225V18.0375C5.28589 17.7394 5.45141 17.4578 5.71654 17.3088L7.48874 16.2818C7.6213 16.199 7.77034 16.1657 7.91939 16.1657C8.06843 16.1657 8.21748 16.199 8.33356 16.2818L10.1058 17.3088C10.3709 17.4578 10.5364 17.7393 10.5364 18.0375V23.1225C10.5364 23.4206 10.7021 23.7022 10.9671 23.8513L15.141 26.2364C15.2736 26.3193 15.4391 26.3193 15.5717 26.2364C15.7042 26.1701 15.7871 26.021 15.7871 25.872L15.7705 15.0065Z" fill="#333333"/>
<path d="M49.5266 0.0497041C49.3942 -0.0166494 49.2285 -0.0166494 49.1124 0.0497041C48.98 0.132538 48.8972 0.264959 48.8972 0.414003V11.1803C48.8972 11.2796 48.8476 11.379 48.7481 11.4453C48.6488 11.4949 48.5494 11.4949 48.4501 11.4453L46.6943 10.435C46.5656 10.3617 46.4201 10.3231 46.2719 10.3231C46.1238 10.3231 45.9782 10.3617 45.8495 10.435L38.8266 14.493C38.5617 14.642 38.396 14.9236 38.396 15.2217V23.3212C38.396 23.6192 38.5617 23.901 38.8266 24.05L45.8495 28.1081C45.9782 28.1814 46.1238 28.2199 46.2719 28.2199C46.4201 28.2199 46.5656 28.1814 46.6943 28.1081L53.7172 24.05C53.9822 23.901 54.1479 23.6194 54.1479 23.3212V3.13048C54.1479 2.81577 53.9822 2.53431 53.7172 2.38512L49.5268 0.0497041H49.5266ZM48.8807 20.6545C48.8807 20.7374 48.8476 20.8036 48.7813 20.8367L46.3796 22.228C46.3461 22.2443 46.3093 22.2528 46.2719 22.2528C46.2346 22.2528 46.1978 22.2443 46.1642 22.228L43.7626 20.8367C43.6963 20.8036 43.6631 20.7208 43.6631 20.6545V17.8719C43.6631 17.789 43.6963 17.7228 43.7626 17.6897L46.1642 16.2983C46.1978 16.2819 46.2346 16.2734 46.2719 16.2734C46.3093 16.2734 46.3461 16.2819 46.3796 16.2983L48.7813 17.6897C48.8476 17.7227 48.8807 17.8056 48.8807 17.8719V20.6545Z" fill="#333333"/>
<path d="M72.8976 17.8057C73.1627 17.6566 73.3117 17.375 73.3117 17.0768V15.1058C73.3117 14.8077 73.1461 14.5261 72.8976 14.3771L65.9244 10.3357C65.7957 10.2624 65.6502 10.2239 65.5021 10.2239C65.354 10.2239 65.2084 10.2624 65.0797 10.3357L58.0569 14.3935C57.7917 14.5426 57.6262 14.8242 57.6262 15.1224V23.2219C57.6262 23.5199 57.7917 23.8016 58.0569 23.9506L65.03 27.9258C65.2951 28.0748 65.6097 28.0748 65.8582 27.9258L70.0818 25.574C70.2143 25.5077 70.2972 25.3586 70.2972 25.2096C70.2972 25.0606 70.2143 24.9115 70.0818 24.8452L63.0258 20.7871C62.8934 20.7044 62.8105 20.5719 62.8105 20.4228V17.8886C62.8105 17.7396 62.8934 17.5906 63.0258 17.5242L65.2288 16.2653C65.2933 16.2248 65.3679 16.2032 65.4441 16.2032C65.5203 16.2032 65.5949 16.2248 65.6594 16.2653L67.8623 17.5242C67.9948 17.607 68.0777 17.7395 68.0777 17.8886V19.8762C68.0777 20.0253 68.1605 20.1743 68.2929 20.2405C68.4255 20.3234 68.591 20.3234 68.7236 20.2405L72.8976 17.8057V17.8057Z" fill="#333333"/>
<path d="M65.3944 17.4247C65.419 17.4085 65.4478 17.3999 65.4772 17.3999C65.5066 17.3999 65.5354 17.4085 65.56 17.4247L66.9016 18.2032C66.9514 18.2361 66.9845 18.2859 66.9845 18.3522V19.9092C66.9845 19.9754 66.9514 20.0251 66.9016 20.0582L65.56 20.8367C65.5354 20.8529 65.5066 20.8615 65.4772 20.8615C65.4478 20.8615 65.419 20.8529 65.3944 20.8367L64.0527 20.0582C64.003 20.0251 63.9699 19.9754 63.9699 19.9092V18.3522C63.9699 18.2859 64.003 18.2361 64.0527 18.2032L65.3944 17.4247V17.4247Z" fill="#539E43"/>
<mask id="mask0" mask-type="alpha" maskUnits="userSpaceOnUse" x="19" y="10" width="16" height="19">
<path d="M27.5139 10.3687C27.3851 10.2955 27.2396 10.257 27.0915 10.257C26.9434 10.257 26.7979 10.2955 26.6692 10.3687L19.696 14.3934C19.4309 14.5424 19.2819 14.824 19.2819 15.1221V23.1886C19.2819 23.4867 19.4475 23.7683 19.696 23.9173L26.6692 27.9422C26.7979 28.0155 26.9434 28.054 27.0915 28.054C27.2396 28.054 27.3851 28.0155 27.5139 27.9422L34.4871 23.9173C34.7521 23.7683 34.9013 23.4867 34.9013 23.1886V15.1223C34.9013 14.8242 34.7355 14.5426 34.4871 14.3935L27.5139 10.3687Z" fill="white"/>
</mask>
<g mask="url(#mask0)">
<path d="M27.5139 10.3687C27.3851 10.2955 27.2396 10.257 27.0915 10.257C26.9434 10.257 26.7979 10.2955 26.6692 10.3687L19.696 14.3934C19.4309 14.5424 19.2819 14.824 19.2819 15.1221V23.1886C19.2819 23.4867 19.4475 23.7683 19.696 23.9173L26.6692 27.9422C26.7979 28.0155 26.9434 28.054 27.0915 28.054C27.2396 28.054 27.3851 28.0155 27.5139 27.9422L34.4871 23.9173C34.7521 23.7683 34.9013 23.4867 34.9013 23.1886V15.1223C34.9013 14.8242 34.7355 14.5426 34.4871 14.3935L27.5139 10.3687Z" fill="url(#paint0_linear)"/>
<path d="M34.5036 14.3935L27.4974 10.3687C27.4285 10.334 27.3564 10.3062 27.282 10.2859L19.4309 23.7354C19.4959 23.8148 19.5745 23.8821 19.6629 23.9342L26.6692 27.9591C26.8679 28.0751 27.0998 28.1082 27.3151 28.0418L34.6859 14.5593C34.6362 14.4931 34.5698 14.4432 34.5036 14.3936V14.3935Z" fill="url(#paint1_linear)"/>
<path fill-rule="evenodd" clip-rule="evenodd" d="M34.5202 23.9175C34.719 23.8015 34.868 23.6028 34.9344 23.3875L27.2487 10.2693C27.0499 10.2362 26.8345 10.2527 26.6525 10.3686L19.6959 14.377L27.199 28.0583C27.3081 28.0405 27.4141 28.007 27.5137 27.959L34.5201 23.9176L34.5202 23.9175Z" fill="url(#paint2_linear)"/>
<path fill-rule="evenodd" clip-rule="evenodd" d="M34.5202 23.9174L27.5305 27.9424C27.4318 27.9927 27.3254 28.0262 27.2158 28.0417L27.3483 28.2902L35.0999 23.8016V23.7022L34.9012 23.3708C34.8681 23.6027 34.719 23.8015 34.5202 23.9174V23.9174Z" fill="url(#paint3_linear)"/>
<path fill-rule="evenodd" clip-rule="evenodd" d="M34.5202 23.9174L27.5305 27.9424C27.4318 27.9927 27.3254 28.0262 27.2158 28.0417L27.3483 28.2902L35.0999 23.8016V23.7022L34.9012 23.3708C34.8681 23.6027 34.719 23.8015 34.5202 23.9174V23.9174Z" fill="url(#paint4_linear)"/>
</g>
<defs>
<linearGradient id="paint0_linear" x1="29.9324" y1="13.3691" x2="22.2892" y2="25.3789" gradientUnits="userSpaceOnUse">
<stop stop-color="#41873F"/>
<stop offset="0.3288" stop-color="#418B3D"/>
<stop offset="0.6352" stop-color="#419637"/>
<stop offset="0.9319" stop-color="#3FA92D"/>
<stop offset="1" stop-color="#3FAE2A"/>
</linearGradient>
<linearGradient id="paint1_linear" x1="26.0328" y1="20.1003" x2="45.1749" y2="9.70035" gradientUnits="userSpaceOnUse">
<stop offset="0.1376" stop-color="#41873F"/>
<stop offset="0.4032" stop-color="#54A044"/>
<stop offset="0.7136" stop-color="#66B848"/>
<stop offset="0.9081" stop-color="#6CC04A"/>
</linearGradient>
<linearGradient id="paint2_linear" x1="19.027" y1="19.1557" x2="35.1628" y2="19.1557" gradientUnits="userSpaceOnUse">
<stop offset="0.09192" stop-color="#6CC04A"/>
<stop offset="0.2864" stop-color="#66B848"/>
<stop offset="0.5968" stop-color="#54A044"/>
<stop offset="0.8624" stop-color="#41873F"/>
</linearGradient>
<linearGradient id="paint3_linear" x1="19.0272" y1="25.844" x2="35.1628" y2="25.844" gradientUnits="userSpaceOnUse">
<stop offset="0.09192" stop-color="#6CC04A"/>
<stop offset="0.2864" stop-color="#66B848"/>
<stop offset="0.5968" stop-color="#54A044"/>
<stop offset="0.8624" stop-color="#41873F"/>
</linearGradient>
<linearGradient id="paint4_linear" x1="37.5135" y1="12.9877" x2="33.4257" y2="34.4075" gradientUnits="userSpaceOnUse">
<stop stop-color="#41873F"/>
<stop offset="0.3288" stop-color="#418B3D"/>
<stop offset="0.6352" stop-color="#419637"/>
<stop offset="0.9319" stop-color="#3FA92D"/>
<stop offset="1" stop-color="#3FAE2A"/>
</linearGradient>
</defs>
</svg>
