<svg width="60" height="45" viewBox="0 0 60 45" fill="none" xmlns="http://www.w3.org/2000/svg">
<path d="M51.522 25.7953C49.4347 25.8061 47.6204 26.3088 46.1014 27.052C45.5438 25.9481 44.9865 24.9647 44.8883 24.2433C44.7788 23.4019 44.6478 22.8881 44.7788 21.8826C44.9101 20.8772 45.5002 19.4454 45.4892 19.3362C45.4784 19.2269 45.358 18.7132 44.1559 18.7024C42.9538 18.6914 41.9155 18.9319 41.7952 19.2487C41.675 19.5656 41.4456 20.287 41.2925 21.03C41.0848 22.1231 38.8883 26.0245 37.6316 28.0683C37.227 27.2707 36.8773 26.5711 36.8007 26.0137C36.6915 25.1723 36.5602 24.6586 36.6915 23.6531C36.8227 22.6476 37.4129 21.2161 37.4019 21.1066C37.3909 20.9974 37.2706 20.4837 36.0685 20.4729C34.8662 20.4619 33.8279 20.7023 33.7079 21.0192C33.5877 21.3363 33.4564 22.0793 33.2052 22.8007C32.9537 23.5221 30.0357 30.0358 29.2707 31.7187C28.9616 32.3998 28.6373 33.0739 28.2981 33.7406C28.2981 33.7406 28.287 33.7734 28.2542 33.828C28.1477 34.0371 28.0384 34.2447 27.9266 34.451V34.4618C27.7625 34.7571 27.5877 35.0301 27.5002 35.0301C27.4346 35.0301 27.3144 34.2433 27.522 33.1722C27.9591 30.9101 28.9974 27.3909 28.9866 27.2707C28.9866 27.2051 29.1833 26.5931 28.3091 26.276C27.4564 25.9591 27.1506 26.4837 27.0739 26.4837C26.9975 26.4837 26.9427 26.6695 26.9427 26.6695C26.9427 26.6695 27.8938 22.7133 25.1286 22.7133C23.402 22.7133 21.0193 24.604 19.839 26.3088C18.4972 27.039 17.1566 27.7712 15.8171 28.5056C15.1726 28.8663 14.5058 29.227 13.8828 29.5657C13.839 29.5221 13.7954 29.4672 13.7516 29.4237C10.4073 25.8499 4.22165 23.3252 4.48391 18.5276C4.58235 16.7789 5.18329 12.1886 16.3637 6.61498C25.5657 2.07935 32.8883 3.33607 34.156 6.12302C35.9701 10.1013 30.2326 17.4893 20.7242 18.5601C17.0959 18.9647 15.1941 17.5657 14.7134 17.0412C14.2107 16.4946 14.1341 16.4618 13.9482 16.5712C13.6423 16.7353 13.839 17.227 13.9482 17.5111C14.2325 18.254 15.4018 19.5656 17.3799 20.2106C19.1286 20.7787 23.3799 21.0958 28.5275 19.1067C34.287 16.8771 38.7898 10.6804 37.4675 5.48927C36.1449 0.221462 27.4018 -1.51619 19.1286 1.42357C14.2107 3.17248 8.87727 5.92638 5.04125 9.51115C0.483833 13.7733 -0.237573 17.4783 0.057505 19.0303C1.11782 24.5383 8.71344 28.1231 11.7516 30.7788C11.5986 30.8662 11.4563 30.9429 11.3363 31.0085C9.81711 31.7625 4.02477 34.7897 2.58219 37.9919C0.942974 41.6203 2.84469 44.2216 4.10141 44.5711C8.00305 45.6532 12.0139 43.7079 14.1669 40.4946C16.3198 37.2815 16.0576 33.1066 15.0631 31.1941C15.0521 31.1723 15.0413 31.1503 15.0193 31.1285C15.4128 30.899 15.8171 30.6586 16.2106 30.4291C16.9339 30.0016 17.6663 29.5898 18.4074 29.194C18.0357 30.2104 17.7624 31.4236 17.6314 33.1722C17.4673 35.227 18.3088 37.8935 19.4127 38.9426C19.9046 39.4019 20.4838 39.4127 20.8555 39.4127C22.145 39.4127 22.7244 38.3416 23.3691 37.0739C24.1559 35.5221 24.8663 33.7188 24.8663 33.7188C24.8663 33.7188 23.9811 38.5931 26.3856 38.5931C27.2598 38.5931 28.145 37.4564 28.5385 36.8772V36.888C28.5385 36.888 28.5603 36.8552 28.6041 36.7788C28.6916 36.6368 28.7462 36.5491 28.7462 36.5491V36.5276C29.0959 35.9154 29.8829 34.5274 31.0522 32.2214C32.5604 29.2488 34.014 25.533 34.014 25.533C34.014 25.533 34.1452 26.4401 34.5931 27.9483C34.8556 28.8335 35.4017 29.8061 35.8391 30.746C35.4894 31.2379 35.2707 31.511 35.2707 31.511L35.2817 31.522C34.9974 31.8935 34.6916 32.2978 34.3527 32.6915C33.1613 34.1121 31.7408 35.7408 31.5439 36.2104C31.3142 36.7678 31.3691 37.1723 31.8064 37.5002C32.1233 37.7407 32.6914 37.7733 33.2708 37.7407C34.3419 37.664 35.0959 37.4018 35.4674 37.2379C36.0467 37.0303 36.7243 36.7132 37.3581 36.2433C38.5276 35.3798 39.2377 34.1449 39.1724 32.5167C39.1395 31.6204 38.8445 30.7242 38.4838 29.8826C38.5932 29.7297 38.6914 29.5767 38.8009 29.4237C40.6477 26.7241 42.0795 23.7623 42.0795 23.7623C42.0795 23.7623 42.2108 24.6694 42.6587 26.1778C42.8774 26.9428 43.3255 27.7734 43.7188 28.582C41.9811 29.992 40.91 31.6312 40.5275 32.7023C39.8391 34.6915 40.3745 35.5875 41.3909 35.7951C41.8498 35.8936 42.5056 35.6749 42.9866 35.4672C43.5985 35.2706 44.3199 34.9319 45.0085 34.429C46.1781 33.5658 47.3035 32.3634 47.2379 30.7352C47.2051 29.992 47.0084 29.2596 46.7352 28.5492C48.2106 27.9375 50.1123 27.5986 52.5383 27.8826C57.7407 28.4946 58.768 31.7404 58.5711 33.1069C58.3745 34.4728 57.2816 35.216 56.9211 35.4454C56.5602 35.6751 56.4402 35.7515 56.473 35.9154C56.5166 36.1558 56.6914 36.1451 56.9975 36.1012C57.4238 36.0248 59.7298 34.9973 59.8281 32.4836C59.9921 29.2706 56.9319 25.7625 51.522 25.7953V25.7953ZM11.3909 39.3253C9.66407 41.205 7.25985 41.9154 6.22157 41.3144C5.10688 40.6694 5.54399 37.8935 7.66415 35.9046C8.95368 34.6915 10.6149 33.5655 11.7188 32.8772C11.9701 32.7241 12.3418 32.5057 12.7899 32.2324C12.8663 32.1886 12.9102 32.1668 12.9102 32.1668L13.1724 32.0027C13.9482 34.8443 13.2052 37.3472 11.3909 39.3253V39.3253ZM23.9593 30.7788C23.3581 32.2434 22.1014 35.992 21.3364 35.7844C20.6806 35.6095 20.2761 32.7679 21.2052 29.9592C21.6751 28.5492 22.6695 26.8662 23.2489 26.2106C24.1888 25.1613 25.227 24.8114 25.4783 25.2379C25.7954 25.7953 24.3308 29.8608 23.9593 30.7788V30.7788ZM34.3309 35.7405C34.0794 35.8718 33.8391 35.9592 33.7297 35.8936C33.6533 35.8497 33.8391 35.6749 33.8391 35.6749C33.8391 35.6749 35.1397 34.2762 35.6532 33.6422C35.9485 33.2707 36.298 32.8336 36.6697 32.3416V32.4836C36.6697 34.1559 35.052 35.2816 34.3306 35.7405H34.3309ZM42.3308 33.9154C42.1449 33.7842 42.1777 33.3471 42.8007 31.9809C43.0412 31.4454 43.6093 30.5494 44.5822 29.6859C44.6914 30.0356 44.7681 30.3745 44.757 30.6914C44.746 32.8008 43.2381 33.5876 42.3308 33.9154Z" fill="#CD6799"/>
</svg>
