<svg width="51" height="45" viewBox="0 0 51 45" fill="none" xmlns="http://www.w3.org/2000/svg">
<path d="M41.5445 14.5706C41.0068 14.3861 40.4645 14.2152 39.9182 14.058C40.01 13.683 40.0945 13.3125 40.1695 12.9486C41.4006 6.97207 40.5958 2.15726 37.8466 0.572C35.2108 -0.947736 30.9001 0.636935 26.5465 4.42582C26.1174 4.79989 25.6979 5.18475 25.2883 5.58003C25.0141 5.31718 24.735 5.05944 24.4512 4.80693C19.8885 0.755751 15.3151 -0.951684 12.5689 0.638119C9.93538 2.16259 9.15558 6.68884 10.264 12.3529C10.3743 12.9139 10.4988 13.472 10.6374 14.0266C9.99006 14.2106 9.36538 14.4063 8.76755 14.6148C3.41808 16.4799 0.00183105 19.4027 0.00183105 22.4345C0.00183105 25.5657 3.66933 28.7065 9.24104 30.6109C9.69275 30.7646 10.1482 30.9071 10.607 31.0382C10.458 31.6356 10.3257 32.237 10.2103 32.8417C9.15361 38.4075 9.9788 42.8268 12.6052 44.3416C15.3178 45.9059 19.8707 44.2982 24.3038 40.4229C24.6633 40.1078 25.0148 39.7838 25.3581 39.4512C25.8017 39.8792 26.2572 40.2948 26.7239 40.6974C31.0183 44.3925 35.2593 45.8846 37.8831 44.3657C40.5932 42.7968 41.4741 38.0493 40.3305 32.2733C40.2404 31.8208 40.1394 31.3705 40.0276 30.9229C40.3473 30.8282 40.6611 30.7307 40.967 30.6292C46.7594 28.7102 50.5281 25.6076 50.5281 22.4345C50.5281 19.3917 47.0016 16.4491 41.5445 14.5706V14.5706ZM40.2883 28.5806C40.012 28.6719 39.7285 28.7602 39.4396 28.846C38.8001 26.8216 37.9372 24.6691 36.8811 22.445C37.8889 20.2739 38.7186 18.1488 39.3401 16.1377C39.857 16.2873 40.3585 16.445 40.8421 16.6113C45.5178 18.2211 48.3697 20.6007 48.3697 22.4345C48.3697 24.3877 45.2896 26.9233 40.2883 28.5806V28.5806ZM38.2131 32.6925C38.7188 35.2465 38.7908 37.5557 38.4559 39.361C38.1551 40.9832 37.55 42.0646 36.8016 42.4978C35.2094 43.4195 31.8042 42.2215 28.1318 39.0612C27.6976 38.6869 27.274 38.3005 26.8613 37.9027C28.2851 36.3456 29.708 34.5356 31.0966 32.5252C33.5393 32.3084 35.8469 31.954 37.9396 31.4702C38.0426 31.8861 38.1342 32.2938 38.2131 32.6925V32.6925ZM17.2274 42.3385C15.6717 42.8878 14.4326 42.9036 13.6836 42.4717C12.0899 41.5526 11.4273 38.0041 12.331 33.2444C12.4385 32.6819 12.5615 32.1226 12.6999 31.5669C14.7695 32.0248 17.0604 32.354 19.5087 32.5526C20.9069 34.5198 22.3708 36.3279 23.8461 37.9111C23.5326 38.2145 23.2116 38.5101 22.8835 38.7977C20.9231 40.5113 18.9587 41.7271 17.2274 42.3385V42.3385ZM9.93933 28.5685C7.47558 27.7263 5.44091 26.6319 4.0463 25.4377C2.79302 24.3646 2.16045 23.299 2.16045 22.4345C2.16045 20.5946 4.90328 18.2479 9.47808 16.653C10.0333 16.4596 10.6143 16.277 11.2173 16.1057C11.8497 18.1623 12.679 20.3126 13.6799 22.487C12.666 24.6936 11.8248 26.8783 11.1863 28.9591C10.7675 28.8391 10.3517 28.7089 9.93933 28.5685V28.5685ZM12.3824 11.9382C11.4328 7.08555 12.0634 3.42496 13.6504 2.50621C15.3407 1.52766 19.0785 2.92286 23.0181 6.42101C23.275 6.64964 23.5278 6.8829 23.7762 7.12068C22.3082 8.69707 20.8578 10.4917 19.472 12.4473C17.0957 12.6675 14.821 13.0212 12.7297 13.4951C12.6009 12.9792 12.4851 12.4602 12.3824 11.9384V11.9382ZM34.1772 17.3201C33.6832 16.4669 33.1709 15.6244 32.6406 14.7932C34.2528 14.9971 35.7974 15.2677 37.2478 15.5984C36.8124 16.9942 36.2697 18.4534 35.6308 19.9494C35.1638 19.0634 34.6792 18.1868 34.1772 17.3201V17.3201ZM25.2893 8.66332C26.2848 9.74193 27.2819 10.9461 28.2626 12.2527C26.2731 12.1587 24.2804 12.1583 22.2908 12.2515C23.2726 10.9569 24.2781 9.75437 25.2893 8.66332ZM16.3443 17.3349C15.8486 18.1946 15.373 19.0658 14.9179 19.9477C14.2895 18.4569 13.7517 16.9911 13.3126 15.5756C14.7541 15.2531 16.2914 14.9894 17.8933 14.7892C17.3571 15.6255 16.8407 16.4742 16.3443 17.3347V17.3349ZM17.9393 30.2333C16.2843 30.0486 14.7239 29.7985 13.2828 29.4847C13.7288 28.0439 14.2785 26.5469 14.9205 25.0242C15.3774 25.9067 15.855 26.7784 16.3528 27.6385C16.8648 28.5227 17.3949 29.3888 17.9393 30.2333ZM25.3489 36.3577C24.3257 35.254 23.3053 34.0329 22.3088 32.7196C23.2763 32.7575 24.2626 32.7768 25.265 32.7768C26.2949 32.7768 27.3129 32.7537 28.3149 32.7091C27.331 34.0461 26.3377 35.269 25.3489 36.3577ZM35.6511 24.9464C36.3265 26.4859 36.8957 27.975 37.3477 29.3911C35.8828 29.7255 34.3011 29.9947 32.6345 30.1946C33.1686 29.348 33.6857 28.4909 34.1856 27.6237C34.6939 26.7423 35.1825 25.8496 35.6511 24.9464V24.9464ZM32.316 26.5453C31.5506 27.8748 30.7422 29.1791 29.8921 30.4561C28.3521 30.5652 26.8088 30.6194 25.265 30.6186C23.6926 30.6186 22.1631 30.5696 20.6904 30.4741C19.8181 29.2001 18.9942 27.8935 18.2207 26.5571H18.2209C17.451 25.2279 16.7319 23.8699 16.0651 22.486C16.7302 21.1018 17.4471 19.7432 18.2144 18.4129L18.2142 18.4131C18.9812 17.0825 19.7984 15.7815 20.6641 14.5129C22.1667 14.3992 23.7076 14.34 25.2648 14.34H25.265C26.8293 14.34 28.3722 14.3998 29.8743 14.5143C30.7313 15.781 31.5433 17.0775 32.3089 18.4015C33.0787 19.7288 33.8051 21.0808 34.487 22.4554C33.8121 23.8441 33.088 25.2082 32.316 26.5453V26.5453ZM36.7686 2.44187C38.4605 3.41766 39.1185 7.35259 38.0554 12.5128C37.9876 12.842 37.9114 13.1773 37.8285 13.5174C35.732 13.0334 33.4558 12.6736 31.0726 12.45C29.6843 10.473 28.2456 8.67555 26.8015 7.1195C27.18 6.75467 27.5675 6.39929 27.9636 6.05371C31.6939 2.80759 35.1802 1.52588 36.7686 2.44187V2.44187ZM25.265 17.9227C27.7568 17.9227 29.7768 19.9427 29.7768 22.4345C29.7768 24.9263 27.7568 26.9463 25.265 26.9463C22.7732 26.9463 20.7531 24.9263 20.7531 22.4345C20.7531 19.9427 22.7732 17.9227 25.265 17.9227V17.9227Z" fill="#00D8FF"/>
</svg>
