<svg width="48" height="45" viewBox="0 0 48 45" fill="none" xmlns="http://www.w3.org/2000/svg">
<g clip-path="url(#clip0)">
<path d="M32.7171 31.3032C34.4594 31.1228 35.7812 29.6209 35.7211 27.8183C35.6611 26.0159 34.159 24.5739 32.3566 24.5739H32.2365C30.3738 24.634 28.932 26.1961 28.9921 28.0586C29.0522 28.9599 29.4126 29.7409 29.9533 30.2817C27.9106 34.3073 24.7864 37.2513 20.1002 39.7147C16.9159 41.397 13.6115 41.9979 10.3071 41.5774C7.60344 41.2169 5.50061 40.0153 4.17864 38.0324C2.25618 35.0884 2.076 31.9039 3.69821 28.7196C4.83981 26.4364 6.64202 24.7541 7.78362 23.9129C7.54331 23.1318 7.18276 21.8101 7.00258 20.8488C-1.70917 27.1575 -0.807875 35.6892 1.83569 39.7147C3.81827 42.719 7.84374 44.5815 12.2897 44.5815C13.4912 44.5815 14.6928 44.4613 15.8945 44.161C23.5849 42.6589 29.4128 38.0925 32.7171 31.3032V31.3032ZM43.2914 23.853C38.7252 18.5055 31.9962 15.5615 24.3058 15.5615H23.3446C22.8038 14.48 21.6622 13.7589 20.4006 13.7589H20.2803C18.418 13.8191 16.9762 15.3811 17.0361 17.2439C17.0962 19.0463 18.5982 20.4883 20.4006 20.4883H20.5206C21.8424 20.4282 22.984 19.587 23.4646 18.4454H24.5461C29.1123 18.4454 33.438 19.7672 37.3435 22.3508C40.3474 24.3336 42.5103 26.9172 43.7119 30.0414C44.7332 32.5649 44.6731 35.0283 43.5916 37.1313C41.9095 40.3156 39.0857 42.058 35.3607 42.058C32.9574 42.058 30.6744 41.3369 29.4727 40.7962C28.8119 41.397 27.6102 42.3583 26.769 42.9593C29.3526 44.1609 31.9962 44.8218 34.5195 44.8218C40.2873 44.8218 44.553 41.6374 46.1753 38.4531C47.9175 34.9681 47.7973 28.9599 43.2914 23.853V23.853ZM12.7703 32.3244C12.8304 34.127 14.3324 35.5688 16.1348 35.5688H16.2551C18.1176 35.5089 19.5594 33.9466 19.4993 32.0841C19.4394 30.2815 17.9372 28.8397 16.1348 28.8397H16.0147C15.8945 28.8397 15.7141 28.8397 15.5943 28.8996C13.1309 24.814 12.1095 20.368 12.4701 15.5613C12.7102 11.9564 13.9119 8.83199 16.0147 6.24836C17.757 4.02529 21.1215 2.94381 23.4047 2.88387C29.7731 2.76363 32.4766 10.6945 32.657 13.879C33.438 14.0592 34.7598 14.4799 35.6611 14.7803C34.94 5.04701 28.932 0 23.1644 0C17.757 0 12.7703 3.90541 10.7876 9.67334C8.02393 17.3639 9.82632 24.7541 13.1908 30.5821C12.8906 31.0026 12.7102 31.6636 12.7703 32.3246V32.3244Z" fill="#764ABC"/>
</g>
<defs>
<clipPath id="clip0">
<rect width="47.22" height="45" fill="white"/>
</clipPath>
</defs>
</svg>
